# xmcd
#
# Track frame offsets:
#	150
#	15904
#	27153
#	48895
#	65947
#	92974
#	105245
#	113890
#	126525
#	143276
#	160734
#
# Disc length: 2405 seconds
#
# Revision: 0
# Processed by: cddbd v1.5.2PL0 Copyright (c) Steve Scherf et al.
# Submitted via: EasyCDDAExtractor 15.2.5.1
#
DISCID=8709630b
DTITLE=mountain mocha kilimanjaro - taking a lesson from the past
DYEAR=1900
DGENRE=
TTITLE0=power of soul
TTITLE1=get your point over
TTITLE2=exodus [long version]
TTITLE3=too high
TTITLE4=mean street
TTITLE5=tell me a bedtime story
TTITLE6=space dust
TTITLE7=immigrant song
TTITLE8=blackbyrds' theme
TTITLE9=the long and winding road
TTITLE10=k.i.t.t. - knight rider main title [dj uppercut remix]
EXTD=
EXTT0=
EXTT1=
EXTT2=
EXTT3=
EXTT4=
EXTT5=
EXTT6=
EXTT7=
EXTT8=
EXTT9=
EXTT10=
PLAYORDER=
